<svg width="0" height="0" class="hidden">
  <symbol xmlns="http://www.w3.org/2000/svg" viewBox="0 0 18 14" id="email">
    <path d="M15.667.333H2.333C1.417.333.675 1.083.675 2L.667 12c0 .917.75 1.667 1.666 1.667h13.334c.916 0 1.666-.75 1.666-1.667V2c0-.917-.75-1.667-1.666-1.667zm-.334 3.542L9.442 7.558a.843.843 0 01-.884 0L2.667 3.875a.708.708 0 11.75-1.2L9 6.167l5.583-3.492a.708.708 0 11.75 1.2z"></path>
  </symbol>
  <symbol xmlns="http://www.w3.org/2000/svg" viewBox="0 0 20 20" id="facebook">
    <path d="M10.001.002C4.479.002.002 4.479.002 10.001c0 4.99 3.656 9.126 8.437 9.879v-6.988h-2.54v-2.891h2.54V7.798c0-2.508 1.493-3.891 3.776-3.891 1.094 0 2.24.195 2.24.195v2.459h-1.264c-1.24 0-1.628.772-1.628 1.563v1.875h2.771l-.443 2.891h-2.328v6.988C16.344 19.129 20 14.992 20 10.001 20 4.479 15.523.002 10.001.002z"></path>
  </symbol>
  <symbol xmlns="http://www.w3.org/2000/svg" viewBox="0 0 20 20" id="instagram">
    <path d="M10 20a9.811 9.811 0 01-3.887-.791c-1.237-.527-2.301-1.237-3.193-2.129-.892-.892-1.602-1.956-2.129-3.193A9.81 9.81 0 010 10c0-1.354.264-2.65.791-3.887S2.028 3.812 2.92 2.92c.892-.892 1.956-1.602 3.193-2.13A9.81 9.81 0 0110 0a9.81 9.81 0 013.887.791c1.237.527 2.301 1.237 3.193 2.129.892.892 1.602 1.956 2.129 3.193A9.811 9.811 0 0120 10c0 1.354-.264 2.65-.791 3.887s-1.237 2.301-2.129 3.193c-.892.892-1.956 1.602-3.193 2.129A9.811 9.811 0 0110 20zm5-13.75c0-.339-.12-.632-.361-.879A1.192 1.192 0 0013.75 5h-7.5c-.339 0-.632.124-.879.371S5 5.911 5 6.25V7.5h2.227c.755-.833 1.68-1.25 2.773-1.25 1.094 0 2.018.417 2.773 1.25H15V6.25zM7.5 10c0 .69.244 1.28.732 1.768A2.409 2.409 0 0010 12.5c.69 0 1.28-.244 1.768-.732A2.409 2.409 0 0012.5 10c0-.69-.244-1.28-.732-1.768A2.409 2.409 0 0010 7.5c-.69 0-1.28.244-1.768.732A2.409 2.409 0 007.5 10zM15 8.75h-1.484c.156.43.234.846.234 1.25 0 1.042-.365 1.927-1.094 2.656-.729.73-1.614 1.094-2.656 1.094s-1.927-.365-2.656-1.094C6.614 11.927 6.25 11.042 6.25 10c0-.404.078-.82.234-1.25H5v5c0 .352.12.648.361.889.241.24.537.361.889.361h7.5c.352 0 .648-.12.889-.361.24-.241.361-.537.361-.889v-5z"></path>
  </symbol>
  <symbol xmlns="http://www.w3.org/2000/svg" viewBox="0 0 14 20" id="location">
    <path d="M7 0C3.13 0 0 3.13 0 7c0 4.17 4.42 9.92 6.24 12.11.4.48 1.13.48 1.53 0C9.58 16.92 14 11.17 14 7c0-3.87-3.13-7-7-7zm0 9.5a2.5 2.5 0 110-5 2.5 2.5 0 010 5z"></path>
  </symbol>
  <symbol xmlns="http://www.w3.org/2000/svg" viewBox="0 0 23 23" id="phone">
  <path d="M12.4584 7.66657C14.4737 7.66657 15.3334 8.5262 15.3334 10.5416H17.25C17.25 7.45095 15.549 5.7499 12.4584 5.7499V7.66657ZM15.7378 12.8828C15.5536 12.7154 15.3116 12.6261 15.0629 12.6338C14.8142 12.6415 14.5782 12.7456 14.4047 12.924L12.1114 15.2824C11.5594 15.177 10.4497 14.8311 9.30736 13.6916C8.16503 12.5483 7.81907 11.4357 7.71653 10.8875L10.0731 8.59328C10.2517 8.41994 10.3559 8.1839 10.3636 7.9351C10.3713 7.6863 10.2819 7.44428 10.1143 7.26024L6.57323 3.36653C6.40557 3.18191 6.17254 3.06993 5.92363 3.05436C5.67473 3.03879 5.42956 3.12087 5.24019 3.28315L3.16061 5.06661C2.99492 5.2329 2.89603 5.45421 2.88269 5.68857C2.86832 5.92815 2.59423 11.6034 6.9949 16.006C10.834 19.8441 15.6429 20.1249 16.9673 20.1249C17.1609 20.1249 17.2797 20.1192 17.3114 20.1172C17.5457 20.1041 17.7669 20.0048 17.9324 19.8384L19.7149 17.7578C19.8773 17.5686 19.9595 17.3235 19.9441 17.0746C19.9287 16.8257 19.8169 16.5926 19.6324 16.4248L15.7378 12.8828V12.8828Z"/>
  <path d="M19.1666 10.5408H21.0833C21.0833 5.62454 17.3717 1.91675 12.4487 1.91675V3.83341C16.3415 3.83341 19.1666 6.65379 19.1666 10.5408Z"/>
  </symbol>
  <symbol xmlns="http://www.w3.org/2000/svg" viewBox="0 0 14 14" id="phone-call">
    <path d="M11.667 13.358h-.175c-1.867-.233-3.734-.875-5.309-1.866a12.267 12.267 0 01-3.675-3.675A11.617 11.617 0 01.642 2.508c0-.466.116-.933.408-1.283.292-.35.7-.583 1.167-.642h1.925A1.76 1.76 0 015.892 2.1c.058.525.175 1.05.35 1.517.233.641.058 1.341-.409 1.866l-.408.409c.7 1.05 1.575 1.983 2.683 2.683l.409-.408a1.823 1.823 0 011.866-.409 6.39 6.39 0 001.517.35 1.761 1.761 0 011.517 1.75v1.75c0 .467-.175.934-.525 1.225-.35.292-.759.525-1.225.525zM4.142 1.75h-1.75c-.175 0-.35.117-.467.233-.058.117-.117.234-.117.409A10.972 10.972 0 003.5 7.175c.875 1.342 1.983 2.508 3.325 3.325a10.973 10.973 0 004.783 1.692c.234 0 .35-.059.467-.175a.53.53 0 00.175-.409v-1.75c0-.291-.233-.525-.525-.583-.583-.058-1.167-.233-1.75-.467-.233-.058-.467-.058-.642.117l-.758.758a.62.62 0 01-.7.117 9.572 9.572 0 01-3.733-3.733c-.059-.234 0-.525.175-.7l.758-.759c.117-.116.175-.408.117-.583-.234-.583-.35-1.167-.467-1.75 0-.292-.292-.525-.583-.525zm6.941 4.083a.568.568 0 01-.583-.466c-.175-.934-.933-1.634-1.867-1.867a.605.605 0 01-.466-.7.605.605 0 01.7-.467c1.4.292 2.508 1.342 2.741 2.742.059.292-.116.642-.466.7 0 0 0 .058-.059.058zm2.334-.058c-.292 0-.525-.233-.584-.525-.233-2.158-1.925-3.85-4.141-4.142a.683.683 0 01-.525-.641c0-.292.35-.525.641-.525 2.742.291 4.842 2.391 5.134 5.133.058.292-.175.583-.525.642.058.058 0 .058 0 .058z"></path>
  </symbol>
  <symbol xmlns="http://www.w3.org/2000/svg" viewBox="0 0 12 14" id="room">
    <path fill-rule="evenodd" clip-rule="evenodd" d="M5.642.706a.583.583 0 01.716 0l5.25 4.084c.142.11.225.28.225.46v6.417a1.75 1.75 0 01-1.75 1.75H1.917a1.75 1.75 0 01-1.75-1.75V5.25c0-.18.083-.35.225-.46L5.642.706zm-4.309 4.83v6.13a.583.583 0 00.584.584h8.166a.583.583 0 00.584-.583V5.535L6 1.905l-4.667 3.63z"></path>
    <path fill-rule="evenodd" clip-rule="evenodd" d="M3.667 7c0-.322.26-.583.583-.583h3.5c.322 0 .583.26.583.583v5.833a.583.583 0 11-1.166 0v-5.25H4.833v5.25a.583.583 0 11-1.166 0V7z"></path>
  </symbol>
  <symbol xmlns="http://www.w3.org/2000/svg" viewBox="0 0 16 16" id="search-icon">
    <path fill-rule="evenodd" clip-rule="evenodd" d="M7.333 2.667a4.667 4.667 0 100 9.333 4.667 4.667 0 000-9.333zm-6 4.666a6 6 0 1112 0 6 6 0 01-12 0z"></path>
    <path fill-rule="evenodd" clip-rule="evenodd" d="M10.629 10.629c.26-.26.682-.26.942 0l2.9 2.9a.667.667 0 11-.942.942l-2.9-2.9a.667.667 0 010-.942z"></path>
  </symbol>
  <symbol xmlns="http://www.w3.org/2000/svg" viewBox="0 0 6 6" id="Star">
    <path d="M1.333 4L0 2l2-.333L3 0l1 1.667 2 .666-1.333 1.334L5 6 3 5 1 6l.333-2z"></path>
  </symbol>
  <symbol xmlns="http://www.w3.org/2000/svg" viewBox="0 0 14 14" id="user">
    <path fill-rule="evenodd" clip-rule="evenodd" d="M2.604 9.02a2.917 2.917 0 012.063-.853h4.666a2.917 2.917 0 012.917 2.916v1.167a.583.583 0 11-1.167 0v-1.167a1.75 1.75 0 00-1.75-1.75H4.667a1.75 1.75 0 00-1.75 1.75v1.167a.583.583 0 11-1.167 0v-1.167c0-.773.307-1.515.854-2.062zM7 2.333a1.75 1.75 0 100 3.5 1.75 1.75 0 000-3.5zm-2.917 1.75a2.917 2.917 0 115.834 0 2.917 2.917 0 01-5.834 0z"></path>
  </symbol>
  <symbol xmlns="http://www.w3.org/2000/svg" viewBox="0 0 21 21" id="youtube">
    <path d="M12.183 10.325l-2.358-1.1c-.206-.096-.375.01-.375.239v2.072c0 .228.169.335.375.24l2.357-1.1c.207-.097.207-.255.001-.351zM10.5.42C4.933.42.42 4.933.42 10.5S4.933 20.58 10.5 20.58s10.08-4.513 10.08-10.08S16.067.42 10.5.42zm0 14.175c-5.16 0-5.25-.465-5.25-4.095s.09-4.095 5.25-4.095 5.25.465 5.25 4.095-.09 4.095-5.25 4.095z"></path>
  </symbol>
    <symbol xmlns="http://www.w3.org/2000/svg" viewBox="0 0 10 18" id="button-next">
    <path fill-rule="evenodd" clip-rule="evenodd" d="M.366.616a1.25 1.25 0 011.768 0l7.5 7.5a1.25 1.25 0 010 1.768l-7.5 7.5a1.25 1.25 0 01-1.768-1.768L6.982 9 .366 2.384a1.25 1.25 0 010-1.768z"></path>
  </symbol>
  <symbol xmlns="http://www.w3.org/2000/svg" viewBox="0 0 10 18" id="button-prev">
    <path fill-rule="evenodd" clip-rule="evenodd" d="M9.634.616a1.25 1.25 0 010 1.768L3.018 9l6.616 6.616a1.25 1.25 0 01-1.768 1.768l-7.5-7.5a1.25 1.25 0 010-1.768l7.5-7.5a1.25 1.25 0 011.768 0z"></path>
  </symbol>
  <symbol fill="none" xmlns="http://www.w3.org/2000/svg" viewBox="0 0 70 49" id="comma-left">
    <path opacity=".4" d="M65 .795H50L40 19.831v28.554h30V19.83H55L65 .795zm-40 0H10L0 19.831v28.554h30V19.83H15L25 .795z" fill="#F2F2F2"></path>
  </symbol>
  <symbol xmlns="http://www.w3.org/2000/svg" viewBox="0 0 70 49" id="comma-right">
    <path d="M5 48.289h15l10-19.036V.699H0v28.554h15L5 48.289zm40 0h15l10-19.036V.699H40v28.554h15L45 48.289z"></path>
  </symbol>
  <symbol xmlns="http://www.w3.org/2000/svg" viewBox="0 0 14 14" id="map">
    <path fill-rule="evenodd" clip-rule="evenodd" d="M6.99996 1.16667C5.76228 1.16667 4.5753 1.65833 3.70013 2.5335C2.82496 3.40867 2.33329 4.59566 2.33329 5.83333C2.33329 7.64053 3.50914 9.39415 4.79843 10.7551C5.43115 11.4229 6.06585 11.9697 6.54302 12.3497C6.72061 12.4911 6.87572 12.6089 6.99996 12.7007C7.1242 12.6089 7.27931 12.4911 7.4569 12.3497C7.93407 11.9697 8.56877 11.4229 9.20149 10.7551C10.4908 9.39415 11.6666 7.64053 11.6666 5.83333C11.6666 4.59566 11.175 3.40867 10.2998 2.5335C9.42462 1.65833 8.23764 1.16667 6.99996 1.16667ZM6.99996 13.4167C6.67638 13.902 6.67624 13.9019 6.67607 13.9018L6.6744 13.9007L6.67051 13.8981L6.65715 13.8891C6.64579 13.8813 6.62959 13.8703 6.60887 13.8559C6.56744 13.8272 6.5079 13.7854 6.43284 13.7312C6.28278 13.6228 6.07034 13.4646 5.81627 13.2623C5.30907 12.8584 4.63127 12.275 3.95149 11.5574C2.61578 10.1475 1.16663 8.10947 1.16663 5.83333C1.16663 4.28624 1.78121 2.80251 2.87517 1.70854C3.96913 0.614581 5.45286 0 6.99996 0C8.54706 0 10.0308 0.614581 11.1247 1.70854C12.2187 2.80251 12.8333 4.28624 12.8333 5.83333C12.8333 8.10947 11.3841 10.1475 10.0484 11.5574C9.36865 12.275 8.69085 12.8584 8.18365 13.2623C7.92958 13.4646 7.71714 13.6228 7.56708 13.7312C7.49202 13.7854 7.43248 13.8272 7.39105 13.8559C7.37033 13.8703 7.35413 13.8813 7.34277 13.8891L7.32941 13.8981L7.32552 13.9007L7.32429 13.9015C7.32412 13.9016 7.32353 13.902 6.99996 13.4167ZM6.99996 13.4167L7.32353 13.902C7.12759 14.0327 6.87201 14.0324 6.67607 13.9018L6.99996 13.4167Z"/>
    <path fill-rule="evenodd" clip-rule="evenodd" d="M6.99996 4.66667C6.35563 4.66667 5.83329 5.189 5.83329 5.83333C5.83329 6.47767 6.35563 7 6.99996 7C7.64429 7 8.16663 6.47767 8.16663 5.83333C8.16663 5.189 7.64429 4.66667 6.99996 4.66667ZM4.66663 5.83333C4.66663 4.54467 5.71129 3.5 6.99996 3.5C8.28862 3.5 9.33329 4.54467 9.33329 5.83333C9.33329 7.122 8.28862 8.16667 6.99996 8.16667C5.71129 8.16667 4.66663 7.122 4.66663 5.83333Z"/>
  </symbol>
  <symbol viewBox="0 0 17 16" xmlns="http://www.w3.org/2000/svg" id="close">
  <path d="M10.4144 7.99995L16.6575 1.76968C17.0638 1.36443 17.0638 0.709193 16.6575 0.30394C16.2514 -0.101313 15.5948 -0.101313 15.1887 0.30394L8.94539 6.53421L2.70225 0.30394C2.29595 -0.101313 1.63953 -0.101313 1.23343 0.30394C0.827138 0.709193 0.827138 1.36443 1.23343 1.76968L7.47657 7.99995L1.23343 14.2302C0.827138 14.6355 0.827138 15.2907 1.23343 15.696C1.43582 15.8981 1.70192 15.9997 1.96784 15.9997C2.23376 15.9997 2.49967 15.8981 2.70225 15.696L8.94539 9.4657L15.1887 15.696C15.3913 15.8981 15.6572 15.9997 15.9231 15.9997C16.189 15.9997 16.455 15.8981 16.6575 15.696C17.0638 15.2907 17.0638 14.6355 16.6575 14.2302L10.4144 7.99995Z"/>
  </symbol>  
</svg>